# xmcd
# Track frame offsets:
# 225
# 18383
# 33641
# 47782
# 65225
# 80980
# 98001
# 115627
# 141682
# 164769
# 179942
# 200375
# 221390
# 236242
# 253436
# 274055
# 295013
# 316327
#
# Disc length: 4427 seconds
# Revision: 0
# Processed by: cddbd v1.5PL3 Copyright (c) Steve Scherf et al.
# Submitted via: VisiTrax 2.9.9.202 - For more info visit www.synapsa.com
#
DISCID=29114812
DTITLE=The Stylistics - The Stylistics - Greatest Hits
DYEAR=2001
DGENRE=Blues
TTITLE0=That's What Friends Are For
TTITLE1=Reach Out And Touch
TTITLE2=Never Can Say Goodbye
TTITLE3=Sweet Little Jesus Boy
TTITLE4=Can't Take My Eyes Off You
TTITLE5=I Only Have Eyes For You
TTITLE6=How Can You Mend a Broken Heart
TTITLE7=Butterfly Kisses
TTITLE8=I Believe I Can Fly
TTITLE9=Lovin' You
TTITLE10=End Of The Road
TTITLE11=I Just Called To Say I Love You
TTITLE12=Can't Help Falling In Love
TTITLE13=Betcha By Golly, Wow
TTITLE14=Rockin' Roll Baby
TTITLE15=Only For Childen
TTITLE16=You Make Me Feel Brand New
TTITLE17=Hang Your Teardrops Up To Dry
EXTD=2001/12/17 - 17/12/2001 - Virtual Music - Shopping Aricanduva - R$ 7,0
EXTD=0 - dolar: R$ 2,65 - Ouver Records - Brasil - ano: 2000 - upload by MS
EXTD=F - 20/09/2003 - Brasil
EXTT0=
EXTT1=
EXTT2=
EXTT3=
EXTT4=
EXTT5=
EXTT6=
EXTT7=
EXTT8=
EXTT9=
EXTT10=
EXTT11=
EXTT12=
EXTT13=
EXTT14=
EXTT15=
EXTT16=
EXTT17=
PLAYORDER=
